<svg width="8089" height="7947" viewBox="0 0 8089 7947" fill="none" xmlns="http://www.w3.org/2000/svg">
<path fill-rule="evenodd" clip-rule="evenodd" d="M4510.64 174.712C1839.43 1300.83 1424.01 3844.1 2237.56 6363.51C2033.19 6320.79 1828.09 6261.55 1622.73 6184.8C1170.15 4573.97 1217.68 3002.65 1910.57 1746.67C1275.14 2391.22 895.396 3299.27 845.643 4176.91C806.598 4864.92 963.536 5502.76 1300.71 6050.02C1031.52 5925.2 762.303 5769.43 494.027 5580.46C-54.4863 3940.38 620.826 2041.24 1895.48 1053.59C2305.02 736.227 2784.64 448.062 3536.34 227.614C3694.66 181.195 3864.61 137.232 4038.86 96.1052C4198.65 112.768 4356.11 139.207 4510.64 174.712Z" fill="#FBC707"/>
<path fill-rule="evenodd" clip-rule="evenodd" d="M7354.7 6212.58C7625.69 3346.65 5539.5 1785.34 2880.85 1298.45C3019.82 1143.72 3174.25 997.118 3344.82 859.607C4950.87 1219.03 6301.73 1964.56 7109.41 3094.7C6807.62 2250.21 6145.13 1506.59 5359.87 1063.19C4831.67 764.945 4270.68 608.846 3706.07 598.032C3947.63 440.971 4215.33 299.257 4510.51 174.788C6137.59 549.131 7441.07 1923.96 7750.56 3390.79C7855.65 3888.82 7902.09 4434.08 7762.47 5183.45C7718.09 5421.72 7656.51 5680.31 7587.98 5937.05C7514.51 6033.03 7436.58 6124.88 7354.7 6212.58Z" fill="#2D74B7"/>
<path fill-rule="evenodd" clip-rule="evenodd" d="M494.104 5580.51C2882.02 7263.15 5348.22 6311.72 7155.82 4337.74C7222.52 4530.16 7275.07 4731.79 7312.28 4942.77C6141.35 6126.37 4751.6 6884.38 3304.81 6963.64C4205.15 7155.2 5205.15 6995.8 6005.25 6578.06C6594.58 6270.37 7054.53 5841.12 7361.46 5319.82C7385.75 5602.08 7384.29 5899.59 7354.7 6212.65C6187.78 7462.71 4213.45 7867.72 2709.52 7339.15C2216.66 7165.93 1712.86 6919.53 1126.77 6412.71C971.239 6278.22 809.521 6126.45 649.84 5969.08C589.875 5841.6 538.059 5711.89 494.104 5580.51Z" fill="#F14F1B"/>
<path fill-rule="evenodd" clip-rule="evenodd" d="M8088.85 2956.89C7557.94 1569.34 6264.83 389.411 4783.23 -0.000244141C6220.06 493.595 7381.02 1448.42 7864.56 2898.49C7941.05 2913.68 8015.91 2933.28 8088.85 2956.89Z" fill="#2D74B7"/>
<path fill-rule="evenodd" clip-rule="evenodd" d="M3070.33 7883.57C4575.07 8131.55 6275.49 7635.65 7364.08 6586.19C6204.81 7545.95 4771.55 8043.45 3234.64 7724.44C3182.82 7781.09 3127.89 7834.14 3070.33 7883.57Z" fill="#F14F1B"/>
<path fill-rule="evenodd" clip-rule="evenodd" d="M1136.82 1123.43C162.99 2263 -244.308 3938.86 148.73 5377.71C-128.87 3924.35 143.454 2472.05 1196.81 1340.97C1172.11 1269.12 1152.2 1196.5 1136.82 1123.43Z" fill="#FBC707"/>
<path fill-rule="evenodd" clip-rule="evenodd" d="M2977.74 3246.8C3348.19 3280.94 3727.49 3256.22 4108.51 3180.53C4063.98 2821.55 3988.71 2456.99 3885.94 2091.89C4074.53 2139.32 4263.34 2202.2 4451.88 2281.39C4514.16 2541.75 4562.53 2800.56 4596.38 3056.44C4941.96 2949.62 5286.4 2803.55 5624.38 2623.97C5620.88 2812.59 5603.85 3004.02 5572.41 3197.87C5264.8 3344.63 4954.29 3463.95 4643.86 3553.35C4692.26 4388.32 4575.62 5181.45 4270.13 5883.51C4027.21 5993.8 3781.26 6094.44 3555.69 6175.17C4012.19 5452.37 4190.57 4587.82 4150.04 3670.04C3796.36 3735.18 3444.93 3759.59 3100.26 3739.56C3069.28 3602.15 3034.83 3459.7 2996.65 3316.54C2990.44 3293.32 2984.11 3270.07 2977.74 3246.8Z" fill="#F14F1B"/>
</svg>
